<?xml version="1.0" standalone="no"?>
<!DOCTYPE svg PUBLIC "-//W3C//DTD SVG 20010904//EN"
 "http://www.w3.org/TR/2001/REC-SVG-20010904/DTD/svg10.dtd">
<svg version="1.0" xmlns="http://www.w3.org/2000/svg"
 width="400.000000pt" height="400.000000pt" viewBox="0 0 400.000000 400.000000"
 preserveAspectRatio="xMidYMid meet">
<metadata>
Created by potrace 1.11, written by Peter Selinger 2001-2013
</metadata>
<g transform="translate(0.000000,400.000000) scale(0.100000,-0.100000)"
fill="#000000" stroke="none">
<path d="M2125 3279 c-66 -27 -125 -49 -130 -49 -6 0 -34 -16 -62 -35 -29 -19
-57 -35 -63 -35 -6 0 -53 -43 -106 -95 -52 -52 -99 -93 -103 -90 -13 7 -36
-25 -76 -105 -20 -41 -43 -82 -51 -91 -8 -8 -11 -19 -7 -22 3 -4 1 -7 -5 -7
-7 0 -12 -6 -12 -13 0 -12 -75 -125 -158 -237 -19 -25 -56 -83 -84 -130 -28
-47 -53 -87 -55 -90 -3 -3 -18 11 -34 30 -36 44 -32 74 22 146 87 118 142 238
135 294 -3 19 -5 38 -5 42 -1 4 -10 16 -22 27 -17 16 -32 19 -82 15 -34 -2
-82 -11 -107 -19 -25 -7 -63 -15 -85 -16 -22 -2 -44 -5 -50 -8 -5 -3 -14 -6
-20 -7 -78 -13 -75 -14 -92 19 -15 30 -90 136 -104 147 -3 3 -19 25 -34 50
-36 58 -52 69 -97 70 -30 0 -41 -6 -61 -32 -32 -42 -37 -61 -42 -150 -3 -40
-7 -82 -9 -93 -3 -11 -5 -35 -5 -53 -1 -25 -6 -35 -21 -39 -11 -3 -20 -9 -20
-14 0 -5 -5 -9 -10 -9 -6 0 -20 -8 -31 -19 -25 -23 -98 -58 -222 -107 -153
-61 -196 -115 -145 -186 21 -30 93 -68 153 -82 17 -4 72 -28 123 -54 l92 -47
-5 -37 c-6 -33 -12 -117 -19 -243 -3 -68 10 -112 45 -146 59 -57 85 -43 278
149 121 121 131 125 241 92 41 -13 76 -24 78 -25 2 -2 -8 -42 -23 -89 -36
-119 -36 -118 -40 -246 -2 -63 -6 -128 -9 -145 -12 -59 -14 -118 -5 -148 5
-16 11 -48 14 -70 11 -68 76 -156 139 -187 97 -46 227 -32 366 41 52 28 99 54
104 59 4 4 33 -3 65 -17 82 -37 154 -58 259 -77 51 -10 153 -37 227 -62 74
-24 141 -44 150 -44 8 0 23 -4 33 -10 20 -11 169 -60 185 -60 6 0 49 -18 97
-40 48 -22 109 -44 136 -49 58 -11 84 -21 170 -62 80 -39 123 -50 201 -54 72
-4 111 12 207 85 33 25 85 63 117 85 148 102 328 314 410 482 22 44 42 89 44
100 3 10 14 50 26 88 30 101 30 225 0 284 -40 76 -114 168 -156 192 -22 12
-56 37 -77 55 -20 18 -56 41 -80 52 -23 11 -59 36 -78 54 -19 19 -50 37 -68
41 -42 8 -129 65 -206 134 -33 29 -64 53 -70 53 -9 0 -85 51 -131 88 -6 5 -24
17 -40 27 -17 10 -52 41 -80 69 -27 28 -70 68 -95 87 -25 20 -83 73 -130 119
-47 45 -102 93 -122 107 -46 31 -51 42 -54 128 -7 235 -36 274 -206 280 -92 4
-94 3 -213 -46z m-485 -418 c0 -5 -9 -19 -20 -32 l-20 -24 16 33 c15 32 24 40
24 23z m-167 -385 c-10 -13 -20 -22 -22 -20 -4 4 29 44 36 44 2 0 -4 -11 -14
-24z m802 -73 c-29 -54 -29 -50 -1 21 11 27 22 44 24 38 2 -6 -9 -32 -23 -59z
m1079 -172 c-3 -3 -15 6 -27 18 l-22 24 27 -19 c14 -10 24 -21 22 -23z m41
-19 c-3 -3 -11 0 -18 7 -9 10 -8 11 6 5 10 -3 15 -9 12 -12z"/>
</g>
</svg>
